<?xml version="1.0" standalone="no"?>
<!DOCTYPE svg PUBLIC "-//W3C//DTD SVG 20010904//EN"
 "http://www.w3.org/TR/2001/REC-SVG-20010904/DTD/svg10.dtd">
<svg version="1.0" xmlns="http://www.w3.org/2000/svg"
 width="140.000000pt" height="140.000000pt" viewBox="0 0 140.000000 140.000000"
 preserveAspectRatio="xMidYMid meet">
<metadata>
Created by potrace 1.11, written by Peter Selinger 2001-2013
</metadata>
<g transform="translate(0.000000,140.000000) scale(0.100000,-0.100000)"
fill="#000000" stroke="none">
<path d="M660 1333 c-10 -7 -20 -9 -24 -6 -10 10 -78 5 -111 -9 -16 -7 -41
-22 -54 -34 -15 -14 -32 -21 -48 -18 -29 6 -102 -43 -103 -68 0 -9 -9 -20 -20
-23 -11 -3 -20 -12 -20 -19 0 -15 -34 -48 -42 -41 -9 10 -47 -41 -88 -118 -38
-72 -40 -82 -32 -125 8 -47 -3 -102 -21 -102 -4 0 -5 5 -2 10 3 6 1 10 -4 10
-11 0 -16 -49 -12 -130 1 -35 9 -52 33 -77 29 -30 30 -34 18 -62 -10 -26 -9
-36 9 -74 12 -24 21 -51 21 -60 0 -9 5 -17 10 -17 6 0 10 -4 10 -10 0 -28 190
-210 219 -210 6 0 11 -4 11 -9 0 -6 21 -13 48 -17 26 -3 56 -8 66 -10 28 -5
39 6 24 24 -11 13 -10 15 12 10 14 -3 30 -7 35 -9 6 -2 12 1 13 6 2 6 -27 21
-65 35 -90 33 -147 68 -206 127 -48 49 -117 136 -117 149 0 4 -16 40 -36 81
-31 65 -34 80 -28 116 4 23 7 65 5 93 -1 36 3 55 13 63 11 9 13 18 7 30 -17
31 58 159 147 248 23 23 42 46 42 51 0 10 90 78 100 75 4 -1 32 7 61 17 30 11
67 20 82 20 20 0 30 6 34 20 6 21 55 30 51 9 -3 -12 1 -14 88 -24 32 -3 93
-17 134 -30 41 -13 86 -26 100 -29 14 -4 39 -18 55 -32 29 -25 29 -25 5 -19
l-25 6 21 -18 c12 -11 33 -38 48 -61 14 -23 33 -42 41 -42 8 0 15 -5 15 -11 0
-6 9 -22 20 -36 15 -19 20 -21 20 -9 0 19 15 21 26 4 4 -6 0 -16 -9 -23 -15
-11 -15 -14 3 -30 11 -10 18 -25 17 -34 -1 -9 2 -42 6 -73 6 -38 4 -70 -4 -97
-14 -49 -88 -131 -117 -131 -23 0 -62 44 -62 70 0 19 35 53 64 64 27 9 7 27
-36 31 -36 3 -106 -27 -114 -50 -3 -8 -14 -17 -24 -20 -10 -3 -23 -19 -30 -35
-6 -16 -20 -36 -31 -46 -10 -9 -19 -27 -19 -38 0 -12 -9 -39 -21 -60 -24 -45
-23 -79 1 -55 35 33 101 68 127 68 15 0 47 0 70 1 24 1 51 -5 61 -12 57 -41
82 -68 82 -92 0 -14 5 -26 11 -26 7 0 9 -12 5 -36 -6 -30 -5 -34 8 -27 19 11
66 80 66 98 0 8 4 15 10 15 5 0 12 17 15 38 4 20 12 64 20 97 7 35 11 92 9
135 -3 41 -6 98 -8 125 -1 28 -8 68 -16 90 -13 41 -64 137 -87 165 -7 8 -19
24 -28 35 -12 17 -16 18 -24 5 -8 -12 -11 -11 -17 5 -13 34 -98 115 -120 115
-12 0 -32 8 -45 18 -41 29 -112 60 -154 66 -82 12 -178 11 -195 -1z"/>
<path d="M435 1290 c-3 -5 -1 -10 4 -10 6 0 11 5 11 10 0 6 -2 10 -4 10 -3 0
-8 -4 -11 -10z"/>
<path d="M1020 1175 c7 -8 17 -15 22 -15 6 0 5 7 -2 15 -7 8 -17 15 -22 15 -6
0 -5 -7 2 -15z"/>
<path d="M166 605 c4 -8 8 -15 10 -15 2 0 4 7 4 15 0 8 -4 15 -10 15 -5 0 -7
-7 -4 -15z"/>
<path d="M962 413 c-6 -2 -10 -8 -7 -13 6 -10 55 0 55 11 0 10 -27 11 -48 2z"/>
<path d="M1020 410 c0 -5 15 -10 33 -10 24 0 28 3 17 10 -20 13 -50 13 -50 0z"/>
<path d="M922 368 c5 -15 81 -15 86 0 2 8 -12 12 -43 12 -31 0 -45 -4 -43 -12z"/>
<path d="M1028 367 c6 -7 26 -12 44 -11 49 3 50 3 43 14 -3 6 -27 10 -52 10
-36 0 -43 -3 -35 -13z"/>
<path d="M905 329 c-8 -12 6 -15 54 -15 63 1 63 22 1 22 -28 1 -53 -2 -55 -7z"/>
<path d="M1038 332 c-39 -8 -15 -20 37 -19 32 1 55 6 55 12 0 11 -56 15 -92 7z"/>
<path d="M905 292 c-15 -15 1 -22 50 -22 37 0 55 4 55 13 0 12 -94 20 -105 9z"/>
<path d="M1030 292 c-5 -2 -10 -8 -10 -13 0 -5 25 -9 55 -9 39 0 55 4 55 13 0
9 -14 13 -45 13 -25 -1 -49 -2 -55 -4z"/>
<path d="M915 240 c3 -6 50 -10 106 -10 59 0 99 4 99 10 0 6 -42 10 -106 10
-67 0 -103 -4 -99 -10z"/>
<path d="M967 199 c14 -14 92 -14 106 0 8 8 -8 11 -53 11 -47 0 -61 -3 -53
-11z"/>
<path d="M725 151 c-10 -2 -30 -10 -42 -18 -21 -14 -23 -14 -17 1 8 20 -1 20
-37 -1 -36 -22 -33 -54 6 -65 16 -4 32 -5 37 -2 5 3 15 0 23 -6 8 -6 22 -9 32
-6 10 3 39 7 64 10 58 7 110 26 89 34 -8 3 -18 10 -22 16 -5 7 -17 3 -37 -12
-17 -12 -33 -18 -36 -12 -3 5 12 18 35 30 22 11 40 24 40 28 0 8 -98 10 -135
3z m-78 -58 c-8 -7 -37 9 -31 19 3 5 12 4 20 -3 8 -6 13 -14 11 -16z"/>
</g>
</svg>
